<svg id="visual" viewBox="0 0 2440 1440" width="2440" height="1440" xmlns="http://www.w3.org/2000/svg" xmlns:xlink="http://www.w3.org/1999/xlink" version="1.1"><rect x="0" y="0" width="2440" height="1440" fill="#001220"></rect><defs><linearGradient id="grad1_0" x1="41%" y1="0%" x2="100%" y2="100%"><stop offset="16.111111111111114%" stop-color="#3dc4ff" stop-opacity="1"></stop><stop offset="83.88888888888889%" stop-color="#3dc4ff" stop-opacity="1"></stop></linearGradient></defs><defs><linearGradient id="grad1_1" x1="41%" y1="0%" x2="100%" y2="100%"><stop offset="16.111111111111114%" stop-color="#3dc4ff" stop-opacity="1"></stop><stop offset="83.88888888888889%" stop-color="#359cce" stop-opacity="1"></stop></linearGradient></defs><defs><linearGradient id="grad1_2" x1="41%" y1="0%" x2="100%" y2="100%"><stop offset="16.111111111111114%" stop-color="#2b759f" stop-opacity="1"></stop><stop offset="83.88888888888889%" stop-color="#359cce" stop-opacity="1"></stop></linearGradient></defs><defs><linearGradient id="grad1_3" x1="41%" y1="0%" x2="100%" y2="100%"><stop offset="16.111111111111114%" stop-color="#2b759f" stop-opacity="1"></stop><stop offset="83.88888888888889%" stop-color="#1e5171" stop-opacity="1"></stop></linearGradient></defs><defs><linearGradient id="grad1_4" x1="41%" y1="0%" x2="100%" y2="100%"><stop offset="16.111111111111114%" stop-color="#103047" stop-opacity="1"></stop><stop offset="83.88888888888889%" stop-color="#1e5171" stop-opacity="1"></stop></linearGradient></defs><defs><linearGradient id="grad1_5" x1="41%" y1="0%" x2="100%" y2="100%"><stop offset="16.111111111111114%" stop-color="#103047" stop-opacity="1"></stop><stop offset="83.88888888888889%" stop-color="#001220" stop-opacity="1"></stop></linearGradient></defs><defs><linearGradient id="grad2_0" x1="0%" y1="0%" x2="59%" y2="100%"><stop offset="16.111111111111114%" stop-color="#3dc4ff" stop-opacity="1"></stop><stop offset="83.88888888888889%" stop-color="#3dc4ff" stop-opacity="1"></stop></linearGradient></defs><defs><linearGradient id="grad2_1" x1="0%" y1="0%" x2="59%" y2="100%"><stop offset="16.111111111111114%" stop-color="#359cce" stop-opacity="1"></stop><stop offset="83.88888888888889%" stop-color="#3dc4ff" stop-opacity="1"></stop></linearGradient></defs><defs><linearGradient id="grad2_2" x1="0%" y1="0%" x2="59%" y2="100%"><stop offset="16.111111111111114%" stop-color="#359cce" stop-opacity="1"></stop><stop offset="83.88888888888889%" stop-color="#2b759f" stop-opacity="1"></stop></linearGradient></defs><defs><linearGradient id="grad2_3" x1="0%" y1="0%" x2="59%" y2="100%"><stop offset="16.111111111111114%" stop-color="#1e5171" stop-opacity="1"></stop><stop offset="83.88888888888889%" stop-color="#2b759f" stop-opacity="1"></stop></linearGradient></defs><defs><linearGradient id="grad2_4" x1="0%" y1="0%" x2="59%" y2="100%"><stop offset="16.111111111111114%" stop-color="#1e5171" stop-opacity="1"></stop><stop offset="83.88888888888889%" stop-color="#103047" stop-opacity="1"></stop></linearGradient></defs><defs><linearGradient id="grad2_5" x1="0%" y1="0%" x2="59%" y2="100%"><stop offset="16.111111111111114%" stop-color="#001220" stop-opacity="1"></stop><stop offset="83.88888888888889%" stop-color="#103047" stop-opacity="1"></stop></linearGradient></defs><g transform="translate(2440, 0)"><path d="M0 1133.3C-162.9 1044.4 -325.7 955.4 -503.5 872.1C-681.3 788.8 -874 711.1 -981.5 566.6C-1088.9 422.2 -1111.1 211.1 -1133.3 0L0 0Z" fill="#082133"></path><path d="M0 944.4C-135.7 870.3 -271.4 796.2 -419.6 726.7C-567.7 657.3 -728.3 592.5 -817.9 472.2C-907.4 351.9 -925.9 175.9 -944.4 0L0 0Z" fill="#17415c"></path><path d="M0 755.5C-108.6 696.2 -217.1 636.9 -335.7 581.4C-454.2 525.8 -582.7 474 -654.3 377.8C-725.9 281.5 -740.7 140.7 -755.5 0L0 0Z" fill="#246388"></path><path d="M0 566.6C-81.4 522.2 -162.9 477.7 -251.7 436C-340.6 394.4 -437 355.5 -490.7 283.3C-544.5 211.1 -555.6 105.6 -566.6 0L0 0Z" fill="#3088b6"></path><path d="M0 377.8C-54.3 348.1 -108.6 318.5 -167.8 290.7C-227.1 262.9 -291.3 237 -327.2 188.9C-363 140.7 -370.4 70.4 -377.8 0L0 0Z" fill="#39b0e6"></path><path d="M0 188.9C-27.1 174.1 -54.3 159.2 -83.9 145.3C-113.5 131.5 -145.7 118.5 -163.6 94.4C-181.5 70.4 -185.2 35.2 -188.9 0L0 0Z" fill="#3dc4ff"></path></g><g transform="translate(0, 1440)"><path d="M0 -1133.3C133.5 -993.5 267 -853.8 448.5 -776.8C630 -699.9 859.3 -685.7 981.5 -566.6C1103.6 -447.6 1118.4 -223.8 1133.3 0L0 0Z" fill="#082133"></path><path d="M0 -944.4C111.3 -828 222.5 -711.5 373.7 -647.4C525 -583.2 716.1 -571.4 817.9 -472.2C919.7 -373 932 -186.5 944.4 0L0 0Z" fill="#17415c"></path><path d="M0 -755.5C89 -662.4 178 -569.2 299 -517.9C420 -466.6 572.9 -457.1 654.3 -377.8C735.7 -298.4 745.6 -149.2 755.5 0L0 0Z" fill="#246388"></path><path d="M0 -566.6C66.8 -496.8 133.5 -426.9 224.2 -388.4C315 -349.9 429.7 -342.8 490.7 -283.3C551.8 -223.8 559.2 -111.9 566.6 0L0 0Z" fill="#3088b6"></path><path d="M0 -377.8C44.5 -331.2 89 -284.6 149.5 -258.9C210 -233.3 286.4 -228.6 327.2 -188.9C367.9 -149.2 372.8 -74.6 377.8 0L0 0Z" fill="#39b0e6"></path><path d="M0 -188.9C22.3 -165.6 44.5 -142.3 74.7 -129.5C105 -116.6 143.2 -114.3 163.6 -94.4C183.9 -74.6 186.4 -37.3 188.9 0L0 0Z" fill="#3dc4ff"></path></g></svg>